<?xml version="1.0" encoding="UTF-8" standalone="no"?>
<!-- Created with Inkscape (http://www.inkscape.org/) -->

<svg
   xmlns:dc="http://purl.org/dc/elements/1.1/"
   xmlns:cc="http://creativecommons.org/ns#"
   xmlns:rdf="http://www.w3.org/1999/02/22-rdf-syntax-ns#"
   xmlns:svg="http://www.w3.org/2000/svg"
   xmlns="http://www.w3.org/2000/svg"
   xmlns:sodipodi="http://sodipodi.sourceforge.net/DTD/sodipodi-0.dtd"
   xmlns:inkscape="http://www.inkscape.org/namespaces/inkscape"
   width="100"
   height="100"
   id="svg2"
   version="1.1"
   inkscape:version="0.48.1 r9760"
   sodipodi:docname="arrival.svg"
   inkscape:export-xdpi="90"
   inkscape:export-ydpi="90">
  <defs
     id="defs4" />
  <sodipodi:namedview
     id="base"
     pagecolor="#ffffff"
     bordercolor="#666666"
     borderopacity="1.0"
     inkscape:pageopacity="0.0"
     inkscape:pageshadow="2"
     inkscape:zoom="4.0990096"
     inkscape:cx="4.9251091"
     inkscape:cy="22.733241"
     inkscape:document-units="px"
     inkscape:current-layer="svg2"
     showgrid="false"
     fit-margin-top="0"
     fit-margin-left="0"
     fit-margin-right="0"
     fit-margin-bottom="0"
     inkscape:window-width="1680"
     inkscape:window-height="997"
     inkscape:window-x="0"
     inkscape:window-y="0"
     inkscape:window-maximized="1" />
  <metadata
     id="metadata7">
    <rdf:RDF>
      <cc:Work
         rdf:about="">
        <dc:format>image/svg+xml</dc:format>
        <dc:type
           rdf:resource="http://purl.org/dc/dcmitype/StillImage" />
        <dc:title></dc:title>
      </cc:Work>
    </rdf:RDF>
  </metadata>
  <g
     inkscape:label="Ebene 1"
     inkscape:groupmode="layer"
     id="layer1"
     transform="translate(-684.7656,214.67239)">
    <path
       style="fill:#000000;fill-opacity:1;stroke:none"
       d="m 747.76391,-159.36688 25.74933,6.71821 c 10.21155,2.66428 6.9458,14.72321 -2.30389,12.46506 0,0 -42.18343,-10.5996 -62.80557,-15.33276 -3.04288,-0.69839 -6.37914,-1.44934 -8.64986,-3.59195 0,0 -8.97893,-7.2606 -9.85223,-9.29634 -0.86949,-2.02695 1.75501,-16.82317 1.75501,-16.82317 0,0 7.43761,1.21057 7.96973,1.76327 0.62727,0.65161 1.92753,6.32993 3.17596,9.83796 1.28256,3.60388 3.07116,4.24872 6.13376,4.76152 3.28965,0.5508 13.50188,2.98948 13.50188,2.98948 l -3.91852,-23.56564 12.22699,2.61057 z"
       id="path3808"
       inkscape:connector-curvature="0"
       sodipodi:nodetypes="cssssscssscccc" />
  </g>
</svg>
