<?xml version="1.0" encoding="UTF-8" standalone="no"?>
<!-- Created with Inkscape (http://www.inkscape.org/) -->

<svg
   xmlns:dc="http://purl.org/dc/elements/1.1/"
   xmlns:cc="http://creativecommons.org/ns#"
   xmlns:rdf="http://www.w3.org/1999/02/22-rdf-syntax-ns#"
   xmlns:svg="http://www.w3.org/2000/svg"
   xmlns="http://www.w3.org/2000/svg"
   xmlns:sodipodi="http://sodipodi.sourceforge.net/DTD/sodipodi-0.dtd"
   xmlns:inkscape="http://www.inkscape.org/namespaces/inkscape"
   width="100"
   height="100"
   id="svg2"
   version="1.1"
   inkscape:version="0.48.1 r9760"
   sodipodi:docname="departure.svg"
   inkscape:export-xdpi="90"
   inkscape:export-ydpi="90">
  <defs
     id="defs4" />
  <sodipodi:namedview
     id="base"
     pagecolor="#ffffff"
     bordercolor="#666666"
     borderopacity="1.0"
     inkscape:pageopacity="0.0"
     inkscape:pageshadow="2"
     inkscape:zoom="4.0990096"
     inkscape:cx="4.9251091"
     inkscape:cy="22.733241"
     inkscape:document-units="px"
     inkscape:current-layer="layer1"
     showgrid="false"
     fit-margin-top="0"
     fit-margin-left="0"
     fit-margin-right="0"
     fit-margin-bottom="0"
     inkscape:window-width="1680"
     inkscape:window-height="997"
     inkscape:window-x="0"
     inkscape:window-y="0"
     inkscape:window-maximized="1" />
  <metadata
     id="metadata7">
    <rdf:RDF>
      <cc:Work
         rdf:about="">
        <dc:format>image/svg+xml</dc:format>
        <dc:type
           rdf:resource="http://purl.org/dc/dcmitype/StillImage" />
        <dc:title></dc:title>
      </cc:Work>
    </rdf:RDF>
  </metadata>
  <g
     inkscape:label="Ebene 1"
     inkscape:groupmode="layer"
     id="layer1"
     transform="translate(-684.7656,214.67239)">
    <path
       style="fill:#000000;fill-opacity:1;stroke:none"
       d="m 747.4441,-173.82766 24.45967,-10.4827 c 9.70011,-4.15718 14.51499,7.37104 5.82372,11.25921 0,0 -39.82145,17.49415 -59.01378,26.40088 -2.83191,1.31423 -5.92779,2.76684 -9.03534,2.46676 0,0 -11.54491,-0.22942 -13.48307,-1.302 -1.92977,-1.06796 -8.9297,-14.36521 -8.9297,-14.36521 0,0 6.61748,-3.60451 7.37673,-3.49422 0.89506,0.13008 5.40414,3.8182 8.54144,5.82374 3.22304,2.06032 5.03132,1.47292 7.76499,0 2.93633,-1.58213 12.49863,-5.91794 12.49863,-5.91794 l -17.54587,-16.21223 11.25921,-5.43548 z"
       id="path3808"
       inkscape:connector-curvature="0"
       sodipodi:nodetypes="cssssscssscccc" />
  </g>
</svg>
